<?xml version="1.0" encoding="utf-8"?><svg viewBox="0 0 453.16797 453.16797" xmlns="http://www.w3.org/2000/svg" xmlns:openbadges="http://openbadges.org"><openbadges:assertion verify="https://api.eu.badgr.io/public/assertions/RgfKwvxmSkSXFOS_GJ477g"><![CDATA[{
  "@context": "https://w3id.org/openbadges/v2",
  "type": "Assertion",
  "id": "https://api.eu.badgr.io/public/assertions/RgfKwvxmSkSXFOS_GJ477g",
  "badge": "https://api.eu.badgr.io/public/badges/NzEKNsvvSiSfU4kak_R18Q",
  "image": "https://api.eu.badgr.io/public/assertions/RgfKwvxmSkSXFOS_GJ477g/image",
  "verification": {
    "type": "HostedBadge"
  },
  "issuedOn": "2022-01-02T10:08:00+00:00",
  "recipient": {
    "hashed": true,
    "type": "email",
    "identity": "sha256$55fb17555ed0cc0dac777750a14ef44383aa716741e109eb2274f7abc13a71f2",
    "salt": "a1ae1057bc5e4dc7ba71962de19fb242"
  }
}]]></openbadges:assertion><defs><style>.bb8cb677-aa97-4d42-ad42-080213b44320{fill:url(#e82703ed-8f63-416a-bad9-2803a4be4a9a);}.ba56c351-3168-4294-9b6f-0735822ae91a{fill:#fff;}.ee03e13b-6c2b-4f69-90c3-a0ae4ca5af5e{fill:#2a15bf;}.a2e33c87-e7e8-4dd0-98f5-ae0c12f43637{fill:#ff7762;}</style><linearGradient gradientTransform="translate(-93.85416 226.58399) rotate(-45)" gradientUnits="userSpaceOnUse" id="e82703ed-8f63-416a-bad9-2803a4be4a9a" x1="225.07786" x2="227.99145" y1="-7.66322" y2="445.48686"><stop offset="0" stop-color="#1f7bfc"/><stop offset="0.39023" stop-color="#2356e6"/><stop offset="1" stop-color="#2a15bf"/></linearGradient></defs><g data-name="Calque 2" id="a37cda79-8b8e-4461-8a26-bb5b260c8d40"><g data-name="Calque 4" id="adb29de6-17b5-4dfa-91a3-b631fe47dc12"><rect class="bb8cb677-aa97-4d42-ad42-080213b44320" height="332.23237" rx="20.134" transform="translate(226.58399 -93.85416) rotate(45)" width="332.23237" x="60.4678" y="60.4678"/><rect class="ba56c351-3168-4294-9b6f-0735822ae91a" height="270.98885" rx="3.87062" transform="translate(226.58399 -93.85416) rotate(45)" width="270.98885" x="91.08956" y="91.08956"/><polygon class="ee03e13b-6c2b-4f69-90c3-a0ae4ca5af5e" points="226.584 78.087 231.958 88.976 243.975 90.722 235.28 99.199 237.332 111.167 226.584 105.516 215.836 111.167 217.888 99.199 209.193 90.722 221.21 88.976 226.584 78.087"/><polygon class="ee03e13b-6c2b-4f69-90c3-a0ae4ca5af5e" points="226.584 368.257 229.629 374.426 236.437 375.415 231.51 380.217 232.673 386.997 226.584 383.796 220.495 386.997 221.658 380.217 216.731 375.415 223.539 374.426 226.584 368.257"/><polygon class="a2e33c87-e7e8-4dd0-98f5-ae0c12f43637" points="184.478 356.254 268.69 356.254 344.685 280.259 108.483 280.259 184.478 356.254"/><path class="ba56c351-3168-4294-9b6f-0735822ae91a" d="M196.5942,297.67044,190.10885,318.274H186.3276l-3.87891-14.65625h-.043L178.39791,318.274h-3.76562L168.146,297.67044h4.34766l4.00781,13.93359h.05664l3.667-13.93359h4.31934l3.63867,13.93359h.05664l4.00781-13.93359Z"/><path class="ba56c351-3168-4294-9b6f-0735822ae91a" d="M200.59615,297.67044H213.7651v3.65429h-9.14746v4.94141h7.335v3.59668h-7.335v4.77246h9.75684V318.274H200.59615Z"/><path class="ba56c351-3168-4294-9b6f-0735822ae91a" d="M236.34518,297.67044V318.274h-4.17676l-9.0625-13.65039h-.05664V318.274H218.9858V297.67044h4.06348l9.16113,13.91992h.05664V297.67044Z"/><path class="ba56c351-3168-4294-9b6f-0735822ae91a" d="M244.06393,317.70755a10.59535,10.59535,0,0,1-3.51758-2.43555l2.44922-3.01562a7.95189,7.95189,0,0,0,1.22461,1.14648,7.65867,7.65867,0,0,0,1.3164.80664,6.70727,6.70727,0,0,0,1.31055.46777,5.48311,5.48311,0,0,0,1.27442.15528,4.20545,4.20545,0,0,0,1.63574-.28321,2.18372,2.18372,0,0,0,.998-.76367,1.978,1.978,0,0,0,.32618-1.13281,2.15426,2.15426,0,0,0-.14258-.80762,2.00358,2.00358,0,0,0-.38867-.623,2.87245,2.87245,0,0,0-.72266-.53125,8.90767,8.90767,0,0,0-.98437-.4668q-.50978-.20508-1.34473-.48926-.75147-.26807-1.33106-.49512-.58006-.227-1.25976-.57324a9.91146,9.91146,0,0,1-1.17578-.69433,7.50838,7.50838,0,0,1-.98438-.835,4.728,4.728,0,0,1-.793-1.03418,5.53735,5.53735,0,0,1-.49609-1.25976,5.89565,5.89565,0,0,1-.19043-1.52246,5.32065,5.32065,0,0,1,.87793-2.97363,6.09975,6.09975,0,0,1,2.39258-2.11719,7.517,7.517,0,0,1,3.34179-.79981,10.50356,10.50356,0,0,1,6.93946,2.5918l-2.35156,3.07227a7.42759,7.42759,0,0,0-4.48829-2.02539,2.74953,2.74953,0,0,0-1.77734.55273,1.88021,1.88021,0,0,0-.70117,1.51562,1.65486,1.65486,0,0,0,.14258.69336,1.92991,1.92991,0,0,0,.38183.55957,3.11086,3.11086,0,0,0,.71582.50977q.47314.2622.94727.4668.4746.20508,1.28222.5166a37.0557,37.0557,0,0,1,3.41309,1.459,5.38121,5.38121,0,0,1,2.5625,2.5918,5.85009,5.85009,0,0,1,.39649,2.23633,6.29339,6.29339,0,0,1-.43946,2.38672,5.28725,5.28725,0,0,1-1.16015,1.79785,7.01743,7.01743,0,0,1-1.67774,1.21777,7.78488,7.78488,0,0,1-1.96191.72266,9.59246,9.59246,0,0,1-2.05371.21875A10.25441,10.25441,0,0,1,244.06393,317.70755Z"/><path class="ba56c351-3168-4294-9b6f-0735822ae91a" d="M259.77,297.67044h13.169v3.65429h-9.14746v4.94141h7.335v3.59668h-7.335v4.77246h9.75683V318.274H259.77Z"/><path class="ba56c351-3168-4294-9b6f-0735822ae91a" d="M278.28658,297.67044H282.393V318.274h-4.10645Z"/><path class="ba56c351-3168-4294-9b6f-0735822ae91a" d="M189.5776,330.90384a3.89253,3.89253,0,0,1,1.45313,1.54492,4.883,4.883,0,0,1,.20507,3.9248,3.78114,3.78114,0,0,1-2.1582,2.17871,4.22709,4.22709,0,0,1-1.59961.30371,3.669,3.669,0,0,1-1.6543-.37109,3.4908,3.4908,0,0,1-1.2539-1.05371h-.02442v1.31641h-1.32519V326.18411H184.603v5.49023h.03418a3.42494,3.42494,0,0,1,1.25293-.99121,3.75425,3.75425,0,0,1,1.5957-.34179A3.97263,3.97263,0,0,1,189.5776,330.90384Zm-.209,5.85644a2.95509,2.95509,0,0,0,.77539-2.10351,3.05982,3.05982,0,0,0-.80469-2.208,2.66594,2.66594,0,0,0-2.01172-.84082,2.60367,2.60367,0,0,0-1.41992.40332,2.7751,2.7751,0,0,0-.9961,1.10449,3.33967,3.33967,0,0,0-.35742,1.541,3.13715,3.13715,0,0,0,.22461,1.19531,2.75388,2.75388,0,0,0,2.56641,1.7373A2.64079,2.64079,0,0,0,189.36862,336.76028Z"/><path class="ba56c351-3168-4294-9b6f-0735822ae91a" d="M201.00338,330.441l-4.69824,11.68066h-1.46582l1.48242-3.69922-3.50781-7.98144h1.47461l2.69922,6.32421h.043l2.50683-6.32421Z"/><path class="ba56c351-3168-4294-9b6f-0735822ae91a" d="M212.05221,333.34036l-1.74023,2.0498v3.35743h-1.4834V326.62552h1.4834v6.65625h.0332l5.50586-6.65625h1.90039L213.06,332.149l4.81641,6.59864H216.019l-3.94141-5.40723Z"/><path class="ba56c351-3168-4294-9b6f-0735822ae91a" d="M227.812,330.441v8.30664h-1.32422v-1.31641h-.02539a3.54288,3.54288,0,0,1-1.25391,1.0498,3.63021,3.63021,0,0,1-1.6543.375,4.22712,4.22712,0,0,1-1.59961-.30371,3.78114,3.78114,0,0,1-2.1582-2.17871,4.883,4.883,0,0,1,.20508-3.9248,3.89932,3.89932,0,0,1,1.45312-1.54492,3.97757,3.97757,0,0,1,2.0918-.5625,3.75419,3.75419,0,0,1,1.5957.34179,3.42011,3.42011,0,0,1,1.25391.99121h.0332V330.441Zm-3.05762,6.93652a2.77883,2.77883,0,0,0,.8916-.5918,2.72708,2.72708,0,0,0,.60742-.93359,3.13763,3.13763,0,0,0,.22559-1.19531,3.37651,3.37651,0,0,0-.21192-1.19532,3.07374,3.07374,0,0,0-.58007-.9707,2.66817,2.66817,0,0,0-.88282-.64551,2.60086,2.60086,0,0,0-1.09961-.2373,2.66594,2.66594,0,0,0-2.01172.84082,3.064,3.064,0,0,0-.80468,2.208,2.95931,2.95931,0,0,0,.77539,2.10351,2.64144,2.64144,0,0,0,2.02441.8291A2.73814,2.73814,0,0,0,224.75436,337.37747Z"/><path class="ba56c351-3168-4294-9b6f-0735822ae91a" d="M238.61276,330.441v7.68164a5.38912,5.38912,0,0,1-.23633,1.65429,3.66852,3.66852,0,0,1-.7168,1.291,3.07391,3.07391,0,0,1-1.27539.85351,5.23182,5.23182,0,0,1-1.85351.30079,6.3976,6.3976,0,0,1-3.38282-.9004l.334-1.27441a7.35819,7.35819,0,0,0,1.46679.66211,5.089,5.089,0,0,0,1.51563.21289,3.65412,3.65412,0,0,0,1.22461-.19238,2.36154,2.36154,0,0,0,.88281-.52442,2.22453,2.22453,0,0,0,.51758-.7705,2.55462,2.55462,0,0,0,.17383-.95411v-1.1582h-.041a3.45382,3.45382,0,0,1-2.8164,1.2666,4.12694,4.12694,0,0,1-1.55762-.2959,3.90317,3.90317,0,0,1-1.27832-.82519,3.75924,3.75924,0,0,1-.86328-1.30762,4.44311,4.44311,0,0,1-.31641-1.6875,4.35445,4.35445,0,0,1,.5127-2.10351,3.83553,3.83553,0,0,1,3.43652-2.02832,3.98116,3.98116,0,0,1,1.58789.32031,3.53957,3.53957,0,0,1,1.27832.92969h.0332V330.441Zm-2.08985,6.04492a2.90082,2.90082,0,0,0,.76563-2.07032,2.67935,2.67935,0,0,0-2.77344-2.791,2.58416,2.58416,0,0,0-1.9502.7998,2.78693,2.78693,0,0,0-.7666,2.00782,3.373,3.373,0,0,0,.1377.97461,2.60489,2.60489,0,0,0,.38769.7998,2.76475,2.76475,0,0,0,.58692.5918,2.4796,2.4796,0,0,0,.75.375,2.93684,2.93684,0,0,0,.85449.125A2.637,2.637,0,0,0,236.52291,336.48587Z"/><path class="ba56c351-3168-4294-9b6f-0735822ae91a" d="M241.85885,328.61673a.93276.93276,0,0,1-.2832-.6836.9672.9672,0,0,1,.9834-.97461.95991.95991,0,0,1,.49121.12989.9721.9721,0,0,1,.35839.35351.94708.94708,0,0,1,.13379.49121.92518.92518,0,0,1-.28711.6836,1.00236,1.00236,0,0,1-1.39648,0Zm0,1.82422h1.375v8.30664h-1.375Z"/><path class="ba56c351-3168-4294-9b6f-0735822ae91a" d="M246.70455,326.18411h1.375v12.56348h-1.375Z"/><path class="ba56c351-3168-4294-9b6f-0735822ae91a" d="M258.4985,330.441v8.30664h-1.38281v-1.375h-.02539a3.38613,3.38613,0,0,1-1.208,1.09961,3.18258,3.18258,0,0,1-1.52442.38378,3.013,3.013,0,0,1-2.29589-.86621,3.656,3.656,0,0,1-.82032-2.59961V330.441h1.38282v4.54882a3.1247,3.1247,0,0,0,.5,1.98731,1.86847,1.86847,0,0,0,1.52539.60449,2.16994,2.16994,0,0,0,.94531-.21289,2.40645,2.40645,0,0,0,.7832-.59961,2.86808,2.86808,0,0,0,.53711-.9873,4.15849,4.15849,0,0,0,.2002-1.31641V330.441Z"/><path class="ba56c351-3168-4294-9b6f-0735822ae91a" d="M273.68307,331.20755a4.08418,4.08418,0,0,1,.73242,2.6748v4.86524h-1.375v-4.49024a3.40965,3.40965,0,0,0-.4707-2.0166,1.70855,1.70855,0,0,0-1.46973-.63281,2.06037,2.06037,0,0,0-1.667.82422,3.38736,3.38736,0,0,0-.666,2.1914v4.124h-1.375v-4.50684a4.259,4.259,0,0,0-.22461-1.5,1.674,1.674,0,0,0-.6582-.8623,2.02437,2.02437,0,0,0-1.0918-.27051,2.15216,2.15216,0,0,0-1.72461.82031,3.32443,3.32443,0,0,0-.68261,2.19531v4.124h-1.374V330.441h1.374v1.417h.02441a3.6029,3.6029,0,0,1,1.24219-1.1211,3.21671,3.21671,0,0,1,1.54883-.3955,2.5502,2.5502,0,0,1,2.625,1.61621h.0332a3.51493,3.51493,0,0,1,1.2959-1.19532,3.60934,3.60934,0,0,1,1.72851-.42089A2.69149,2.69149,0,0,1,273.68307,331.20755Z"/><path class="ee03e13b-6c2b-4f69-90c3-a0ae4ca5af5e" d="M125.81,155.63675h32.78321a40.95864,40.95864,0,0,1,11.2666,1.44775,26.693,26.693,0,0,1,8.65918,4.11279,24.66342,24.66342,0,0,1,6.02343,6.40039,27.04248,27.04248,0,0,1,3.5625,8.22461,39.93983,39.93983,0,0,1,1.12989,9.76026q0,9.32519-3.99707,15.84179a24.07917,24.07917,0,0,1-11.1211,9.644,41.85225,41.85225,0,0,1-16.91308,3.12744h-9.499V239.9136H125.81Zm27.74414,39.03955q5.56055,0,8.8916-2.49073a8.36362,8.36362,0,0,0,3.33008-7.12451,8.73315,8.73315,0,0,0-3.15625-6.86377q-3.15673-2.751-9.00683-2.75146h-5.90821V194.6763Z"/><path class="ee03e13b-6c2b-4f69-90c3-a0ae4ca5af5e" d="M209.0942,237.74075a44.88553,44.88553,0,0,1-14.6543-10.10742l12.74317-15.69727a32.582,32.582,0,0,0,9.81738,7.0376,23.30816,23.30816,0,0,0,9.41309,2.28809q3.64746,0,5.44336-1.59278a4.96931,4.96931,0,0,0,1.79687-3.852,5.21241,5.21241,0,0,0-2.05664-4.25732q-2.05663-1.65088-8.60156-3.852-3.07032-1.04225-5.47363-1.99805-2.40381-.95581-5.15528-2.375a38.04024,38.04024,0,0,1-4.83593-2.9248,28.13936,28.13936,0,0,1-4.084-3.64942,20.49573,20.49573,0,0,1-3.24414-4.54687,25.4182,25.4182,0,0,1-2.02734-5.53125,27.63352,27.63352,0,0,1-.78125-6.71924,23.63013,23.63013,0,0,1,3.62011-12.82959,25.556,25.556,0,0,1,10.04981-9.12305,32.21105,32.21105,0,0,1,14.42187-3.5332,41.15836,41.15836,0,0,1,16.01563,2.80908,46.44433,46.44433,0,0,1,13.81445,8.42773l-12.51074,16.10254a50.78255,50.78255,0,0,0-9.06543-5.85009,16.63754,16.63754,0,0,0-6.97949-1.7378,6.44935,6.44935,0,0,0-4.40137,1.33252A4.62173,4.62173,0,0,0,220.853,179.21a5.52034,5.52034,0,0,0,2.14258,4.19922q2.14307,1.88305,8.22461,4.1997,10.6582,4.11255,14.13281,5.96582,7.64649,4.11255,10.25293,10.19434a23.55247,23.55247,0,0,1,1.73731,9.44141,31.333,31.333,0,0,1-1.01368,8.167,24.00316,24.00316,0,0,1-2.78027,6.57422,24.25254,24.25254,0,0,1-4.25684,5.06836,26.945,26.945,0,0,1-5.27148,3.76465,32.85179,32.85179,0,0,1-5.96582,2.49072,40.28517,40.28517,0,0,1-6.25488,1.41894,44.12758,44.12758,0,0,1-6.19825.43457A42.178,42.178,0,0,1,209.0942,237.74075Z"/><path class="ee03e13b-6c2b-4f69-90c3-a0ae4ca5af5e" d="M296.5483,239.8555a48.10277,48.10277,0,0,1-10.39648-3.67774,38.64463,38.64463,0,0,1-8.97852-6.11084,38.44323,38.44323,0,0,1-11.55566-19.14355,51.80253,51.80253,0,0,1-.28906-24.53028,46.04124,46.04124,0,0,1,3.82226-10.397,37.16211,37.16211,0,0,1,6.31446-8.8042,39.95119,39.95119,0,0,1,19.49023-11.208,52.2922,52.2922,0,0,1,13.00391-1.56347,45.1895,45.1895,0,0,1,18.39062,4.0542,43.31831,43.31831,0,0,1,15.957,12.22168l-16.50781,14.1333a26.69576,26.69576,0,0,0-3.21484-3.041,33.99171,33.99171,0,0,0-4.02539-2.75146,21.24308,21.24308,0,0,0-5.01075-2.11426,20.35833,20.35833,0,0,0-5.58886-.78174,21.45089,21.45089,0,0,0-6.082.86865,18.60574,18.60574,0,0,0-5.53125,2.69336,19.80854,19.80854,0,0,0-4.48925,4.40235,20.2312,20.2312,0,0,0-3.01172,6.13964,26.06013,26.06013,0,0,0-1.10059,7.73291,24.03443,24.03443,0,0,0,1.38965,8.167,21.39551,21.39551,0,0,0,3.93945,6.83447,18.1706,18.1706,0,0,0,6.40039,4.69189,20.39628,20.39628,0,0,0,8.48536,1.7378,22.30457,22.30457,0,0,0,9.81738-2.375,23.33415,23.33415,0,0,0,8.02246-6.19776l16.50781,14.19092A44.2735,44.2735,0,0,1,327.53658,236.67a43.15816,43.15816,0,0,1-19.57714,4.46A50.42319,50.42319,0,0,1,296.5483,239.8555Z"/></g></g></svg>